<svg class="main-svg" xmlns="http://www.w3.org/2000/svg" xmlns:xlink="http://www.w3.org/1999/xlink" width="700" height="320" style="" viewBox="0 0 700 320"><rect x="0" y="0" width="700" height="320" style="fill: rgb(255, 255, 255); fill-opacity: 1;"/><defs id="defs-f39ecd"><g class="clips"><clipPath id="clipf39ecdxyplot" class="plotclip"><rect width="408" height="188"/></clipPath><clipPath class="axesclip" id="clipf39ecdx"><rect x="212" y="0" width="408" height="320"/></clipPath><clipPath class="axesclip" id="clipf39ecdy"><rect x="0" y="80" width="700" height="188"/></clipPath><clipPath class="axesclip" id="clipf39ecdxy"><rect x="212" y="80" width="408" height="188"/></clipPath></g><g class="gradients"/><g class="patterns"/></defs><g class="bglayer"/><g class="layer-below"><g class="imagelayer"/><g class="shapelayer"/></g><g class="cartesianlayer"><g class="subplot xy"><g class="layer-subplot"><g class="shapelayer"/><g class="imagelayer"/></g><g class="minor-gridlayer"><g class="x"/><g class="y"/></g><g class="gridlayer"><g class="x"><path class="xgrid crisp" transform="translate(252.8,0)" d="M0,80v188" style="stroke: rgb(236, 236, 236); stroke-opacity: 1; stroke-width: 1px;"/><path class="xgrid crisp" transform="translate(293.6,0)" d="M0,80v188" style="stroke: rgb(236, 236, 236); stroke-opacity: 1; stroke-width: 1px;"/><path class="xgrid crisp" transform="translate(334.4,0)" d="M0,80v188" style="stroke: rgb(236, 236, 236); stroke-opacity: 1; stroke-width: 1px;"/><path class="xgrid crisp" transform="translate(375.2,0)" d="M0,80v188" style="stroke: rgb(236, 236, 236); stroke-opacity: 1; stroke-width: 1px;"/><path class="xgrid crisp" transform="translate(416,0)" d="M0,80v188" style="stroke: rgb(236, 236, 236); stroke-opacity: 1; stroke-width: 1px;"/><path class="xgrid crisp" transform="translate(456.8,0)" d="M0,80v188" style="stroke: rgb(236, 236, 236); stroke-opacity: 1; stroke-width: 1px;"/><path class="xgrid crisp" transform="translate(497.6,0)" d="M0,80v188" style="stroke: rgb(236, 236, 236); stroke-opacity: 1; stroke-width: 1px;"/><path class="xgrid crisp" transform="translate(538.4,0)" d="M0,80v188" style="stroke: rgb(236, 236, 236); stroke-opacity: 1; stroke-width: 1px;"/><path class="xgrid crisp" transform="translate(579.2,0)" d="M0,80v188" style="stroke: rgb(236, 236, 236); stroke-opacity: 1; stroke-width: 1px;"/></g><g class="y"><path class="ygrid crisp" transform="translate(0,244.5)" d="M212,0h408" style="stroke: rgb(236, 236, 236); stroke-opacity: 1; stroke-width: 1px;"/><path class="ygrid crisp" transform="translate(0,197.5)" d="M212,0h408" style="stroke: rgb(236, 236, 236); stroke-opacity: 1; stroke-width: 1px;"/><path class="ygrid crisp" transform="translate(0,150.5)" d="M212,0h408" style="stroke: rgb(236, 236, 236); stroke-opacity: 1; stroke-width: 1px;"/><path class="ygrid crisp" transform="translate(0,103.5)" d="M212,0h408" style="stroke: rgb(236, 236, 236); stroke-opacity: 1; stroke-width: 1px;"/></g></g><g class="zerolinelayer"/><path class="xlines-below"/><path class="ylines-below"/><g class="overlines-below"/><g class="xaxislayer-below"/><g class="yaxislayer-below"/><g class="overaxes-below"/><g class="plot" transform="translate(212,80)" clip-path="url(#clipf39ecdxyplot)"><g class="boxlayer mlayer"><g class="trace boxes" style="opacity: 1;"><path class="box" d="M292.4,176.02V152.99M88.4,176.02V152.99H408V176.02ZM88.4,164.5H0M408,164.5H408M0,170.26V158.74M408,170.26V158.74" style="vector-effect: non-scaling-stroke; stroke-width: 2px; stroke: rgb(99, 110, 250); stroke-opacity: 1; fill: rgb(99, 110, 250); fill-opacity: 0.5;"/><g class="points"/></g><g class="trace boxes" style="opacity: 1;"><path class="box" d="M95.3,129.01V105.99M27.2,129.01V105.99H136V129.01ZM27.2,117.5H0M136,117.5H163.2M0,123.26V111.74M163.2,123.26V111.74" style="vector-effect: non-scaling-stroke; stroke-width: 2px; stroke: rgb(239, 85, 59); stroke-opacity: 1; fill: rgb(239, 85, 59); fill-opacity: 0.5;"/><g class="points"/></g><g class="trace boxes" style="opacity: 1;"><path class="box" d="M0,82.02V58.99M0,82.02V58.99H0V82.02ZM0,70.5H0M0,70.5H0M0,76.26V64.74M0,76.26V64.74" style="vector-effect: non-scaling-stroke; stroke-width: 2px; stroke: rgb(0, 204, 150); stroke-opacity: 1; fill: rgb(0, 204, 150); fill-opacity: 0.5;"/><g class="points"/></g><g class="trace boxes" style="opacity: 1;"><path class="box" d="M0,35.02V11.98M0,35.02V11.98H0V35.02ZM0,23.5H0M0,23.5H0M0,29.26V17.74M0,29.26V17.74" style="vector-effect: non-scaling-stroke; stroke-width: 2px; stroke: rgb(171, 99, 250); stroke-opacity: 1; fill: rgb(171, 99, 250); fill-opacity: 0.5;"/><g class="points"/></g></g></g><g class="overplot"/><path class="xlines-above crisp" d="M210,269H622M210,79H622" style="fill: none; stroke-width: 2px; stroke: rgb(51, 51, 51); stroke-opacity: 1;"/><path class="ylines-above crisp" d="M211,80V268M621,80V268" style="fill: none; stroke-width: 2px; stroke: rgb(51, 51, 51); stroke-opacity: 1;"/><g class="overlines-above"/><g class="xaxislayer-above"><path class="xtick ticks crisp" d="M0,270v5" transform="translate(212,0)" style="stroke: rgb(68, 68, 68); stroke-opacity: 1; stroke-width: 1px;"/><path class="xtick ticks crisp" d="M0,270v5" transform="translate(252.8,0)" style="stroke: rgb(68, 68, 68); stroke-opacity: 1; stroke-width: 1px;"/><path class="xtick ticks crisp" d="M0,270v5" transform="translate(293.6,0)" style="stroke: rgb(68, 68, 68); stroke-opacity: 1; stroke-width: 1px;"/><path class="xtick ticks crisp" d="M0,270v5" transform="translate(334.4,0)" style="stroke: rgb(68, 68, 68); stroke-opacity: 1; stroke-width: 1px;"/><path class="xtick ticks crisp" d="M0,270v5" transform="translate(375.2,0)" style="stroke: rgb(68, 68, 68); stroke-opacity: 1; stroke-width: 1px;"/><path class="xtick ticks crisp" d="M0,270v5" transform="translate(416,0)" style="stroke: rgb(68, 68, 68); stroke-opacity: 1; stroke-width: 1px;"/><path class="xtick ticks crisp" d="M0,270v5" transform="translate(456.8,0)" style="stroke: rgb(68, 68, 68); stroke-opacity: 1; stroke-width: 1px;"/><path class="xtick ticks crisp" d="M0,270v5" transform="translate(497.6,0)" style="stroke: rgb(68, 68, 68); stroke-opacity: 1; stroke-width: 1px;"/><path class="xtick ticks crisp" d="M0,270v5" transform="translate(538.4,0)" style="stroke: rgb(68, 68, 68); stroke-opacity: 1; stroke-width: 1px;"/><path class="xtick ticks crisp" d="M0,270v5" transform="translate(579.2,0)" style="stroke: rgb(68, 68, 68); stroke-opacity: 1; stroke-width: 1px;"/><path class="xtick ticks crisp" d="M0,270v5" transform="translate(620,0)" style="stroke: rgb(68, 68, 68); stroke-opacity: 1; stroke-width: 1px;"/><g class="xtick"><text text-anchor="middle" x="0" y="289.4" transform="translate(212,0)" style="font-family: Helvetica; font-size: 12px; fill: rgb(51, 51, 51); fill-opacity: 1; white-space: pre; opacity: 1;">0</text></g><g class="xtick"><text text-anchor="middle" x="0" y="289.4" style="font-family: Helvetica; font-size: 12px; fill: rgb(51, 51, 51); fill-opacity: 1; white-space: pre; opacity: 1;" transform="translate(252.8,0)">10</text></g><g class="xtick"><text text-anchor="middle" x="0" y="289.4" style="font-family: Helvetica; font-size: 12px; fill: rgb(51, 51, 51); fill-opacity: 1; white-space: pre; opacity: 1;" transform="translate(293.6,0)">20</text></g><g class="xtick"><text text-anchor="middle" x="0" y="289.4" style="font-family: Helvetica; font-size: 12px; fill: rgb(51, 51, 51); fill-opacity: 1; white-space: pre; opacity: 1;" transform="translate(334.4,0)">30</text></g><g class="xtick"><text text-anchor="middle" x="0" y="289.4" style="font-family: Helvetica; font-size: 12px; fill: rgb(51, 51, 51); fill-opacity: 1; white-space: pre; opacity: 1;" transform="translate(375.2,0)">40</text></g><g class="xtick"><text text-anchor="middle" x="0" y="289.4" style="font-family: Helvetica; font-size: 12px; fill: rgb(51, 51, 51); fill-opacity: 1; white-space: pre; opacity: 1;" transform="translate(416,0)">50</text></g><g class="xtick"><text text-anchor="middle" x="0" y="289.4" style="font-family: Helvetica; font-size: 12px; fill: rgb(51, 51, 51); fill-opacity: 1; white-space: pre; opacity: 1;" transform="translate(456.8,0)">60</text></g><g class="xtick"><text text-anchor="middle" x="0" y="289.4" style="font-family: Helvetica; font-size: 12px; fill: rgb(51, 51, 51); fill-opacity: 1; white-space: pre; opacity: 1;" transform="translate(497.6,0)">70</text></g><g class="xtick"><text text-anchor="middle" x="0" y="289.4" style="font-family: Helvetica; font-size: 12px; fill: rgb(51, 51, 51); fill-opacity: 1; white-space: pre; opacity: 1;" transform="translate(538.4,0)">80</text></g><g class="xtick"><text text-anchor="middle" x="0" y="289.4" style="font-family: Helvetica; font-size: 12px; fill: rgb(51, 51, 51); fill-opacity: 1; white-space: pre; opacity: 1;" transform="translate(579.2,0)">90</text></g><g class="xtick"><text text-anchor="middle" x="0" y="289.4" style="font-family: Helvetica; font-size: 12px; fill: rgb(51, 51, 51); fill-opacity: 1; white-space: pre; opacity: 1;" transform="translate(620,0)">100</text></g></g><g class="yaxislayer-above"><path class="ytick ticks crisp" d="M210,0h-5" transform="translate(0,244.5)" style="stroke: rgb(68, 68, 68); stroke-opacity: 1; stroke-width: 1px;"/><path class="ytick ticks crisp" d="M210,0h-5" transform="translate(0,197.5)" style="stroke: rgb(68, 68, 68); stroke-opacity: 1; stroke-width: 1px;"/><path class="ytick ticks crisp" d="M210,0h-5" transform="translate(0,150.5)" style="stroke: rgb(68, 68, 68); stroke-opacity: 1; stroke-width: 1px;"/><path class="ytick ticks crisp" d="M210,0h-5" transform="translate(0,103.5)" style="stroke: rgb(68, 68, 68); stroke-opacity: 1; stroke-width: 1px;"/><g class="ytick"><text text-anchor="end" x="202.6" y="4.199999999999999" transform="translate(0,244.5)translate(0,-15.600000000000001)" style="font-family: Helvetica; font-size: 12px; fill: rgb(51, 51, 51); fill-opacity: 1; white-space: pre; opacity: 1;"><tspan class="line" dy="0em" x="202.6" y="4.199999999999999">Я решил(а) эту задачу</tspan><tspan class="line" dy="1.3em" x="202.6" y="4.199999999999999">и уверен, что решил(а)</tspan><tspan class="line" dy="2.6em" x="202.6" y="4.199999999999999">правильно на 80% и больше.</tspan></text></g><g class="ytick"><text text-anchor="end" x="202.6" y="4.199999999999999" transform="translate(0,197.5)translate(0,-7.800000000000001)" style="font-family: Helvetica; font-size: 12px; fill: rgb(51, 51, 51); fill-opacity: 1; white-space: pre; opacity: 1;"><tspan class="line" dy="0em" x="202.6" y="4.199999999999999">Я решил(а) задачу,</tspan><tspan class="line" dy="1.3em" x="202.6" y="4.199999999999999">но думаю у меня есть ошибки</tspan></text></g><g class="ytick"><text text-anchor="end" x="202.6" y="4.199999999999999" transform="translate(0,150.5)translate(0,-15.600000000000001)" style="font-family: Helvetica; font-size: 12px; fill: rgb(51, 51, 51); fill-opacity: 1; white-space: pre; opacity: 1;"><tspan class="line" dy="0em" x="202.6" y="4.199999999999999">У меня были идеи по решению</tspan><tspan class="line" dy="1.3em" x="202.6" y="4.199999999999999">задачи, но я не смог(ла)</tspan><tspan class="line" dy="2.6em" x="202.6" y="4.199999999999999">их довести до ума</tspan></text></g><g class="ytick"><text text-anchor="end" x="202.6" y="4.199999999999999" transform="translate(0,103.5)translate(0,-7.800000000000001)" style="font-family: Helvetica; font-size: 12px; fill: rgb(51, 51, 51); fill-opacity: 1; white-space: pre; opacity: 1;"><tspan class="line" dy="0em" x="202.6" y="4.199999999999999">Я не решил(а) эту задачу</tspan><tspan class="line" dy="1.3em" x="202.6" y="4.199999999999999">и я даже не знал(а) с чего начать</tspan></text></g></g><g class="overaxes-above"/></g></g><g class="polarlayer"/><g class="smithlayer"/><g class="ternarylayer"/><g class="geolayer"/><g class="funnelarealayer"/><g class="pielayer"/><g class="iciclelayer"/><g class="treemaplayer"/><g class="sunburstlayer"/><g class="glimages"/><defs id="topdefs-f39ecd"><g class="clips"/></defs><g class="layer-above"><g class="imagelayer"/><g class="shapelayer"/></g><g class="infolayer"><g class="g-gtitle"><text class="gtitle" x="350" y="32" text-anchor="middle" dy="0.7em" style="font-family: Helvetica; font-size: 22px; fill: rgb(51, 51, 51); opacity: 1; font-weight: normal; white-space: pre;"><tspan class="line" dy="0em" x="350" y="32">Соответствие рефлексии конечному результату</tspan><tspan class="line" dy="1.3em" x="350" y="32">(Задача №1; 10 кл., заключительный этап)</tspan></text></g><g class="g-xtitle"/><g class="g-ytitle"/></g></svg>