<svg class="main-svg" xmlns="http://www.w3.org/2000/svg" xmlns:xlink="http://www.w3.org/1999/xlink" width="800" height="500" style="" viewBox="0 0 800 500"><rect x="0" y="0" width="800" height="500" style="fill: rgb(255, 255, 255); fill-opacity: 1;"/><defs id="defs-f2876c"><g class="clips"><clipPath id="clipf2876cxyplot" class="plotclip"><rect width="592" height="320"/></clipPath><clipPath class="axesclip" id="clipf2876cx"><rect x="128" y="0" width="592" height="500"/></clipPath><clipPath class="axesclip" id="clipf2876cy"><rect x="0" y="120" width="800" height="320"/></clipPath><clipPath class="axesclip" id="clipf2876cxy"><rect x="128" y="120" width="592" height="320"/></clipPath></g><g class="gradients"/><g class="patterns"/></defs><g class="bglayer"/><g class="layer-below"><g class="imagelayer"/><g class="shapelayer"/></g><g class="cartesianlayer"><g class="subplot xy"><g class="layer-subplot"><g class="shapelayer"/><g class="imagelayer"/></g><g class="minor-gridlayer"><g class="x"/><g class="y"/></g><g class="gridlayer"><g class="x"><path class="xgrid crisp" transform="translate(157.6,0)" d="M0,120v320" style="stroke: rgb(236, 236, 236); stroke-opacity: 1; stroke-width: 1px;"/><path class="xgrid crisp" transform="translate(187.2,0)" d="M0,120v320" style="stroke: rgb(236, 236, 236); stroke-opacity: 1; stroke-width: 1px;"/><path class="xgrid crisp" transform="translate(216.8,0)" d="M0,120v320" style="stroke: rgb(236, 236, 236); stroke-opacity: 1; stroke-width: 1px;"/><path class="xgrid crisp" transform="translate(246.4,0)" d="M0,120v320" style="stroke: rgb(236, 236, 236); stroke-opacity: 1; stroke-width: 1px;"/><path class="xgrid crisp" transform="translate(276,0)" d="M0,120v320" style="stroke: rgb(236, 236, 236); stroke-opacity: 1; stroke-width: 1px;"/><path class="xgrid crisp" transform="translate(305.6,0)" d="M0,120v320" style="stroke: rgb(236, 236, 236); stroke-opacity: 1; stroke-width: 1px;"/><path class="xgrid crisp" transform="translate(335.2,0)" d="M0,120v320" style="stroke: rgb(236, 236, 236); stroke-opacity: 1; stroke-width: 1px;"/><path class="xgrid crisp" transform="translate(364.8,0)" d="M0,120v320" style="stroke: rgb(236, 236, 236); stroke-opacity: 1; stroke-width: 1px;"/><path class="xgrid crisp" transform="translate(394.4,0)" d="M0,120v320" style="stroke: rgb(236, 236, 236); stroke-opacity: 1; stroke-width: 1px;"/><path class="xgrid crisp" transform="translate(424,0)" d="M0,120v320" style="stroke: rgb(236, 236, 236); stroke-opacity: 1; stroke-width: 1px;"/><path class="xgrid crisp" transform="translate(453.6,0)" d="M0,120v320" style="stroke: rgb(236, 236, 236); stroke-opacity: 1; stroke-width: 1px;"/><path class="xgrid crisp" transform="translate(483.2,0)" d="M0,120v320" style="stroke: rgb(236, 236, 236); stroke-opacity: 1; stroke-width: 1px;"/><path class="xgrid crisp" transform="translate(512.8,0)" d="M0,120v320" style="stroke: rgb(236, 236, 236); stroke-opacity: 1; stroke-width: 1px;"/><path class="xgrid crisp" transform="translate(542.4,0)" d="M0,120v320" style="stroke: rgb(236, 236, 236); stroke-opacity: 1; stroke-width: 1px;"/><path class="xgrid crisp" transform="translate(572,0)" d="M0,120v320" style="stroke: rgb(236, 236, 236); stroke-opacity: 1; stroke-width: 1px;"/><path class="xgrid crisp" transform="translate(601.6,0)" d="M0,120v320" style="stroke: rgb(236, 236, 236); stroke-opacity: 1; stroke-width: 1px;"/><path class="xgrid crisp" transform="translate(631.2,0)" d="M0,120v320" style="stroke: rgb(236, 236, 236); stroke-opacity: 1; stroke-width: 1px;"/><path class="xgrid crisp" transform="translate(660.8,0)" d="M0,120v320" style="stroke: rgb(236, 236, 236); stroke-opacity: 1; stroke-width: 1px;"/><path class="xgrid crisp" transform="translate(690.4,0)" d="M0,120v320" style="stroke: rgb(236, 236, 236); stroke-opacity: 1; stroke-width: 1px;"/></g><g class="y"><path class="ygrid crisp" transform="translate(0,422.22)" d="M128,0h592" style="stroke: rgb(236, 236, 236); stroke-opacity: 1; stroke-width: 1px;"/><path class="ygrid crisp" transform="translate(0,386.67)" d="M128,0h592" style="stroke: rgb(236, 236, 236); stroke-opacity: 1; stroke-width: 1px;"/><path class="ygrid crisp" transform="translate(0,351.11)" d="M128,0h592" style="stroke: rgb(236, 236, 236); stroke-opacity: 1; stroke-width: 1px;"/><path class="ygrid crisp" transform="translate(0,315.56)" d="M128,0h592" style="stroke: rgb(236, 236, 236); stroke-opacity: 1; stroke-width: 1px;"/><path class="ygrid crisp" transform="translate(0,280)" d="M128,0h592" style="stroke: rgb(236, 236, 236); stroke-opacity: 1; stroke-width: 1px;"/><path class="ygrid crisp" transform="translate(0,244.44)" d="M128,0h592" style="stroke: rgb(236, 236, 236); stroke-opacity: 1; stroke-width: 1px;"/><path class="ygrid crisp" transform="translate(0,208.89)" d="M128,0h592" style="stroke: rgb(236, 236, 236); stroke-opacity: 1; stroke-width: 1px;"/><path class="ygrid crisp" transform="translate(0,173.32999999999998)" d="M128,0h592" style="stroke: rgb(236, 236, 236); stroke-opacity: 1; stroke-width: 1px;"/><path class="ygrid crisp" transform="translate(0,137.78)" d="M128,0h592" style="stroke: rgb(236, 236, 236); stroke-opacity: 1; stroke-width: 1px;"/></g></g><g class="zerolinelayer"/><path class="xlines-below"/><path class="ylines-below"/><g class="overlines-below"/><g class="xaxislayer-below"/><g class="yaxislayer-below"/><g class="overaxes-below"/><g class="plot" transform="translate(128,120)" clip-path="url(#clipf2876cxyplot)"><g class="boxlayer mlayer"><g class="trace boxes" style="opacity: 1;"><path class="box" d="M64.56,310.93V293.51M26.24,310.93V293.51H111.46V310.93ZM26.24,302.22H1.1M111.46,302.22H237.53M1.1,306.58V297.87M237.53,306.58V297.87" style="vector-effect: non-scaling-stroke; stroke-width: 2px; stroke: rgb(99, 110, 250); stroke-opacity: 1; fill: rgb(99, 110, 250); fill-opacity: 0.5;"/><g class="points"/></g><g class="trace boxes" style="opacity: 1;"><path class="box" d="M1,275.38V257.96M0,275.38V257.96H40.36V275.38ZM0,266.67H0M40.36,266.67H94.18M0,271.02V262.31M94.18,271.02V262.31" style="vector-effect: non-scaling-stroke; stroke-width: 2px; stroke: rgb(239, 85, 59); stroke-opacity: 1; fill: rgb(239, 85, 59); fill-opacity: 0.5;"/><g class="points"><path class="point" transform="translate(107.64,266.67)" d="M3,0A3,3 0 1,1 0,-3A3,3 0 0,1 3,0Z" style="opacity: 1; stroke-width: 0px; fill: rgb(239, 85, 59); fill-opacity: 1;"/><path class="point" transform="translate(121.09,266.67)" d="M3,0A3,3 0 1,1 0,-3A3,3 0 0,1 3,0Z" style="opacity: 1; stroke-width: 0px; fill: rgb(239, 85, 59); fill-opacity: 1;"/><path class="point" transform="translate(164.15,266.67)" d="M3,0A3,3 0 1,1 0,-3A3,3 0 0,1 3,0Z" style="opacity: 1; stroke-width: 0px; fill: rgb(239, 85, 59); fill-opacity: 1;"/><path class="point" transform="translate(177.6,266.67)" d="M3,0A3,3 0 1,1 0,-3A3,3 0 0,1 3,0Z" style="opacity: 1; stroke-width: 0px; fill: rgb(239, 85, 59); fill-opacity: 1;"/><path class="point" transform="translate(188.36,266.67)" d="M3,0A3,3 0 1,1 0,-3A3,3 0 0,1 3,0Z" style="opacity: 1; stroke-width: 0px; fill: rgb(239, 85, 59); fill-opacity: 1;"/><path class="point" transform="translate(282.55,266.67)" d="M3,0A3,3 0 1,1 0,-3A3,3 0 0,1 3,0Z" style="opacity: 1; stroke-width: 0px; fill: rgb(239, 85, 59); fill-opacity: 1;"/><path class="point" transform="translate(347.13,266.67)" d="M3,0A3,3 0 1,1 0,-3A3,3 0 0,1 3,0Z" style="opacity: 1; stroke-width: 0px; fill: rgb(239, 85, 59); fill-opacity: 1;"/></g></g><g class="trace boxes" style="opacity: 1;"><path class="box" d="M1,239.82V222.4M0,239.82V222.4H3.52V239.82ZM0,231.11H0M3.52,231.11H3.52M0,235.47V226.76M3.52,235.47V226.76" style="vector-effect: non-scaling-stroke; stroke-width: 2px; stroke: rgb(0, 204, 150); stroke-opacity: 1; fill: rgb(0, 204, 150); fill-opacity: 0.5;"/><g class="points"><path class="point" transform="translate(9.87,231.11)" d="M3,0A3,3 0 1,1 0,-3A3,3 0 0,1 3,0Z" style="opacity: 1; stroke-width: 0px; fill: rgb(0, 204, 150); fill-opacity: 1;"/><path class="point" transform="translate(16.91,231.11)" d="M3,0A3,3 0 1,1 0,-3A3,3 0 0,1 3,0Z" style="opacity: 1; stroke-width: 0px; fill: rgb(0, 204, 150); fill-opacity: 1;"/><path class="point" transform="translate(17.62,231.11)" d="M3,0A3,3 0 1,1 0,-3A3,3 0 0,1 3,0Z" style="opacity: 1; stroke-width: 0px; fill: rgb(0, 204, 150); fill-opacity: 1;"/><path class="point" transform="translate(19.03,231.11)" d="M3,0A3,3 0 1,1 0,-3A3,3 0 0,1 3,0Z" style="opacity: 1; stroke-width: 0px; fill: rgb(0, 204, 150); fill-opacity: 1;"/><path class="point" transform="translate(19.03,231.11)" d="M3,0A3,3 0 1,1 0,-3A3,3 0 0,1 3,0Z" style="opacity: 1; stroke-width: 0px; fill: rgb(0, 204, 150); fill-opacity: 1;"/><path class="point" transform="translate(30.3,231.11)" d="M3,0A3,3 0 1,1 0,-3A3,3 0 0,1 3,0Z" style="opacity: 1; stroke-width: 0px; fill: rgb(0, 204, 150); fill-opacity: 1;"/><path class="point" transform="translate(38.06,231.11)" d="M3,0A3,3 0 1,1 0,-3A3,3 0 0,1 3,0Z" style="opacity: 1; stroke-width: 0px; fill: rgb(0, 204, 150); fill-opacity: 1;"/><path class="point" transform="translate(38.76,231.11)" d="M3,0A3,3 0 1,1 0,-3A3,3 0 0,1 3,0Z" style="opacity: 1; stroke-width: 0px; fill: rgb(0, 204, 150); fill-opacity: 1;"/><path class="point" transform="translate(44.4,231.11)" d="M3,0A3,3 0 1,1 0,-3A3,3 0 0,1 3,0Z" style="opacity: 1; stroke-width: 0px; fill: rgb(0, 204, 150); fill-opacity: 1;"/><path class="point" transform="translate(69.07,231.11)" d="M3,0A3,3 0 1,1 0,-3A3,3 0 0,1 3,0Z" style="opacity: 1; stroke-width: 0px; fill: rgb(0, 204, 150); fill-opacity: 1;"/></g></g><g class="trace boxes" style="opacity: 1;"><path class="box" d="M36,204.27V186.84M0,204.27V186.84H37V204.27ZM0,195.56H0M37,195.56H74M0,199.91V191.2M74,199.91V191.2" style="vector-effect: non-scaling-stroke; stroke-width: 2px; stroke: rgb(171, 99, 250); stroke-opacity: 1; fill: rgb(171, 99, 250); fill-opacity: 0.5;"/><g class="points"><path class="point" transform="translate(111,195.56)" d="M3,0A3,3 0 1,1 0,-3A3,3 0 0,1 3,0Z" style="opacity: 1; stroke-width: 0px; fill: rgb(171, 99, 250); fill-opacity: 1;"/><path class="point" transform="translate(111,195.56)" d="M3,0A3,3 0 1,1 0,-3A3,3 0 0,1 3,0Z" style="opacity: 1; stroke-width: 0px; fill: rgb(171, 99, 250); fill-opacity: 1;"/><path class="point" transform="translate(222,195.56)" d="M3,0A3,3 0 1,1 0,-3A3,3 0 0,1 3,0Z" style="opacity: 1; stroke-width: 0px; fill: rgb(171, 99, 250); fill-opacity: 1;"/><path class="point" transform="translate(259,195.56)" d="M3,0A3,3 0 1,1 0,-3A3,3 0 0,1 3,0Z" style="opacity: 1; stroke-width: 0px; fill: rgb(171, 99, 250); fill-opacity: 1;"/><path class="point" transform="translate(314.5,195.56)" d="M3,0A3,3 0 1,1 0,-3A3,3 0 0,1 3,0Z" style="opacity: 1; stroke-width: 0px; fill: rgb(171, 99, 250); fill-opacity: 1;"/><path class="point" transform="translate(333,195.56)" d="M3,0A3,3 0 1,1 0,-3A3,3 0 0,1 3,0Z" style="opacity: 1; stroke-width: 0px; fill: rgb(171, 99, 250); fill-opacity: 1;"/><path class="point" transform="translate(555,195.56)" d="M3,0A3,3 0 1,1 0,-3A3,3 0 0,1 3,0Z" style="opacity: 1; stroke-width: 0px; fill: rgb(171, 99, 250); fill-opacity: 1;"/></g></g><g class="trace boxes" style="opacity: 1;"><path class="box" d="M69.07,168.71V151.29M0,168.71V151.29H140.6V168.71ZM0,160H0M140.6,160H256.53M0,164.36V155.64M256.53,164.36V155.64" style="vector-effect: non-scaling-stroke; stroke-width: 2px; stroke: rgb(255, 161, 90); stroke-opacity: 1; fill: rgb(255, 161, 90); fill-opacity: 0.5;"/><g class="points"/></g><g class="trace boxes" style="opacity: 1;"><path class="box" d="M148,133.16V115.73M85.1,133.16V115.73H192.4V133.16ZM85.1,124.44H0M192.4,124.44H340.4M0,128.8V120.09M340.4,128.8V120.09" style="vector-effect: non-scaling-stroke; stroke-width: 2px; stroke: rgb(25, 211, 243); stroke-opacity: 1; fill: rgb(25, 211, 243); fill-opacity: 0.5;"/><g class="points"><path class="point" transform="translate(355.2,124.44)" d="M3,0A3,3 0 1,1 0,-3A3,3 0 0,1 3,0Z" style="opacity: 1; stroke-width: 0px; fill: rgb(25, 211, 243); fill-opacity: 1;"/><path class="point" transform="translate(399.6,124.44)" d="M3,0A3,3 0 1,1 0,-3A3,3 0 0,1 3,0Z" style="opacity: 1; stroke-width: 0px; fill: rgb(25, 211, 243); fill-opacity: 1;"/><path class="point" transform="translate(414.4,124.44)" d="M3,0A3,3 0 1,1 0,-3A3,3 0 0,1 3,0Z" style="opacity: 1; stroke-width: 0px; fill: rgb(25, 211, 243); fill-opacity: 1;"/></g></g><g class="trace boxes" style="opacity: 1;"><path class="box" d="M1,97.6V80.18M0,97.6V80.18H59.2V97.6ZM0,88.89H0M59.2,88.89H118.4M0,93.24V84.53M118.4,93.24V84.53" style="vector-effect: non-scaling-stroke; stroke-width: 2px; stroke: rgb(255, 102, 146); stroke-opacity: 1; fill: rgb(255, 102, 146); fill-opacity: 0.5;"/><g class="points"><path class="point" transform="translate(236.8,88.89)" d="M3,0A3,3 0 1,1 0,-3A3,3 0 0,1 3,0Z" style="opacity: 1; stroke-width: 0px; fill: rgb(255, 102, 146); fill-opacity: 1;"/><path class="point" transform="translate(296,88.89)" d="M3,0A3,3 0 1,1 0,-3A3,3 0 0,1 3,0Z" style="opacity: 1; stroke-width: 0px; fill: rgb(255, 102, 146); fill-opacity: 1;"/><path class="point" transform="translate(296,88.89)" d="M3,0A3,3 0 1,1 0,-3A3,3 0 0,1 3,0Z" style="opacity: 1; stroke-width: 0px; fill: rgb(255, 102, 146); fill-opacity: 1;"/><path class="point" transform="translate(296,88.89)" d="M3,0A3,3 0 1,1 0,-3A3,3 0 0,1 3,0Z" style="opacity: 1; stroke-width: 0px; fill: rgb(255, 102, 146); fill-opacity: 1;"/><path class="point" transform="translate(355.2,88.89)" d="M3,0A3,3 0 1,1 0,-3A3,3 0 0,1 3,0Z" style="opacity: 1; stroke-width: 0px; fill: rgb(255, 102, 146); fill-opacity: 1;"/><path class="point" transform="translate(414.4,88.89)" d="M3,0A3,3 0 1,1 0,-3A3,3 0 0,1 3,0Z" style="opacity: 1; stroke-width: 0px; fill: rgb(255, 102, 146); fill-opacity: 1;"/></g></g><g class="trace boxes" style="opacity: 1;"><path class="box" d="M10.55,62.04V44.62M9.55,62.04V44.62H50.13V62.04ZM9.55,53.33H0M50.13,53.33H67.2M0,57.69V48.98M67.2,57.69V48.98" style="vector-effect: non-scaling-stroke; stroke-width: 2px; stroke: rgb(182, 232, 128); stroke-opacity: 1; fill: rgb(182, 232, 128); fill-opacity: 0.5;"/><g class="points"><path class="point" transform="translate(124.13,53.33)" d="M3,0A3,3 0 1,1 0,-3A3,3 0 0,1 3,0Z" style="opacity: 1; stroke-width: 0px; fill: rgb(182, 232, 128); fill-opacity: 1;"/><path class="point" transform="translate(210.06,53.33)" d="M3,0A3,3 0 1,1 0,-3A3,3 0 0,1 3,0Z" style="opacity: 1; stroke-width: 0px; fill: rgb(182, 232, 128); fill-opacity: 1;"/><path class="point" transform="translate(219.61,53.33)" d="M3,0A3,3 0 1,1 0,-3A3,3 0 0,1 3,0Z" style="opacity: 1; stroke-width: 0px; fill: rgb(182, 232, 128); fill-opacity: 1;"/><path class="point" transform="translate(276.9,53.33)" d="M3,0A3,3 0 1,1 0,-3A3,3 0 0,1 3,0Z" style="opacity: 1; stroke-width: 0px; fill: rgb(182, 232, 128); fill-opacity: 1;"/><path class="point" transform="translate(305.83,53.33)" d="M3,0A3,3 0 1,1 0,-3A3,3 0 0,1 3,0Z" style="opacity: 1; stroke-width: 0px; fill: rgb(182, 232, 128); fill-opacity: 1;"/><path class="point" transform="translate(401.03,53.33)" d="M3,0A3,3 0 1,1 0,-3A3,3 0 0,1 3,0Z" style="opacity: 1; stroke-width: 0px; fill: rgb(182, 232, 128); fill-opacity: 1;"/><path class="point" transform="translate(553.81,53.33)" d="M3,0A3,3 0 1,1 0,-3A3,3 0 0,1 3,0Z" style="opacity: 1; stroke-width: 0px; fill: rgb(182, 232, 128); fill-opacity: 1;"/></g></g><g class="trace boxes" style="opacity: 1;"><path class="box" d="M208.94,26.49V9.07M67.91,26.49V9.07H382.69V26.49ZM67.91,17.78H0M382.69,17.78H592M0,22.13V13.42M592,22.13V13.42" style="vector-effect: non-scaling-stroke; stroke-width: 2px; stroke: rgb(255, 151, 255); stroke-opacity: 1; fill: rgb(255, 151, 255); fill-opacity: 0.5;"/><g class="points"/></g></g></g><g class="overplot"/><path class="xlines-above crisp" d="M126,441H722M126,119H722" style="fill: none; stroke-width: 2px; stroke: rgb(51, 51, 51); stroke-opacity: 1;"/><path class="ylines-above crisp" d="M127,120V440M721,120V440" style="fill: none; stroke-width: 2px; stroke: rgb(51, 51, 51); stroke-opacity: 1;"/><g class="overlines-above"/><g class="xaxislayer-above"><path class="xtick ticks crisp" d="M0,442v5" transform="translate(128,0)" style="stroke: rgb(68, 68, 68); stroke-opacity: 1; stroke-width: 1px;"/><path class="xtick ticks crisp" d="M0,442v5" transform="translate(157.6,0)" style="stroke: rgb(68, 68, 68); stroke-opacity: 1; stroke-width: 1px;"/><path class="xtick ticks crisp" d="M0,442v5" transform="translate(187.2,0)" style="stroke: rgb(68, 68, 68); stroke-opacity: 1; stroke-width: 1px;"/><path class="xtick ticks crisp" d="M0,442v5" transform="translate(216.8,0)" style="stroke: rgb(68, 68, 68); stroke-opacity: 1; stroke-width: 1px;"/><path class="xtick ticks crisp" d="M0,442v5" transform="translate(246.4,0)" style="stroke: rgb(68, 68, 68); stroke-opacity: 1; stroke-width: 1px;"/><path class="xtick ticks crisp" d="M0,442v5" transform="translate(276,0)" style="stroke: rgb(68, 68, 68); stroke-opacity: 1; stroke-width: 1px;"/><path class="xtick ticks crisp" d="M0,442v5" transform="translate(305.6,0)" style="stroke: rgb(68, 68, 68); stroke-opacity: 1; stroke-width: 1px;"/><path class="xtick ticks crisp" d="M0,442v5" transform="translate(335.2,0)" style="stroke: rgb(68, 68, 68); stroke-opacity: 1; stroke-width: 1px;"/><path class="xtick ticks crisp" d="M0,442v5" transform="translate(364.8,0)" style="stroke: rgb(68, 68, 68); stroke-opacity: 1; stroke-width: 1px;"/><path class="xtick ticks crisp" d="M0,442v5" transform="translate(394.4,0)" style="stroke: rgb(68, 68, 68); stroke-opacity: 1; stroke-width: 1px;"/><path class="xtick ticks crisp" d="M0,442v5" transform="translate(424,0)" style="stroke: rgb(68, 68, 68); stroke-opacity: 1; stroke-width: 1px;"/><path class="xtick ticks crisp" d="M0,442v5" transform="translate(453.6,0)" style="stroke: rgb(68, 68, 68); stroke-opacity: 1; stroke-width: 1px;"/><path class="xtick ticks crisp" d="M0,442v5" transform="translate(483.2,0)" style="stroke: rgb(68, 68, 68); stroke-opacity: 1; stroke-width: 1px;"/><path class="xtick ticks crisp" d="M0,442v5" transform="translate(512.8,0)" style="stroke: rgb(68, 68, 68); stroke-opacity: 1; stroke-width: 1px;"/><path class="xtick ticks crisp" d="M0,442v5" transform="translate(542.4,0)" style="stroke: rgb(68, 68, 68); stroke-opacity: 1; stroke-width: 1px;"/><path class="xtick ticks crisp" d="M0,442v5" transform="translate(572,0)" style="stroke: rgb(68, 68, 68); stroke-opacity: 1; stroke-width: 1px;"/><path class="xtick ticks crisp" d="M0,442v5" transform="translate(601.6,0)" style="stroke: rgb(68, 68, 68); stroke-opacity: 1; stroke-width: 1px;"/><path class="xtick ticks crisp" d="M0,442v5" transform="translate(631.2,0)" style="stroke: rgb(68, 68, 68); stroke-opacity: 1; stroke-width: 1px;"/><path class="xtick ticks crisp" d="M0,442v5" transform="translate(660.8,0)" style="stroke: rgb(68, 68, 68); stroke-opacity: 1; stroke-width: 1px;"/><path class="xtick ticks crisp" d="M0,442v5" transform="translate(690.4,0)" style="stroke: rgb(68, 68, 68); stroke-opacity: 1; stroke-width: 1px;"/><path class="xtick ticks crisp" d="M0,442v5" transform="translate(720,0)" style="stroke: rgb(68, 68, 68); stroke-opacity: 1; stroke-width: 1px;"/><g class="xtick"><text text-anchor="middle" x="0" y="468.6" transform="translate(128,0)" style="font-family: Helvetica; font-size: 18px; fill: rgb(51, 51, 51); fill-opacity: 1; white-space: pre; opacity: 1;">0</text></g><g class="xtick"><text text-anchor="middle" x="0" y="468.6" style="font-family: Helvetica; font-size: 18px; fill: rgb(51, 51, 51); fill-opacity: 1; white-space: pre; opacity: 1;" transform="translate(157.6,0)">5</text></g><g class="xtick"><text text-anchor="middle" x="0" y="468.6" style="font-family: Helvetica; font-size: 18px; fill: rgb(51, 51, 51); fill-opacity: 1; white-space: pre; opacity: 1;" transform="translate(187.2,0)">10</text></g><g class="xtick"><text text-anchor="middle" x="0" y="468.6" style="font-family: Helvetica; font-size: 18px; fill: rgb(51, 51, 51); fill-opacity: 1; white-space: pre; opacity: 1;" transform="translate(216.8,0)">15</text></g><g class="xtick"><text text-anchor="middle" x="0" y="468.6" style="font-family: Helvetica; font-size: 18px; fill: rgb(51, 51, 51); fill-opacity: 1; white-space: pre; opacity: 1;" transform="translate(246.4,0)">20</text></g><g class="xtick"><text text-anchor="middle" x="0" y="468.6" style="font-family: Helvetica; font-size: 18px; fill: rgb(51, 51, 51); fill-opacity: 1; white-space: pre; opacity: 1;" transform="translate(276,0)">25</text></g><g class="xtick"><text text-anchor="middle" x="0" y="468.6" style="font-family: Helvetica; font-size: 18px; fill: rgb(51, 51, 51); fill-opacity: 1; white-space: pre; opacity: 1;" transform="translate(305.6,0)">30</text></g><g class="xtick"><text text-anchor="middle" x="0" y="468.6" style="font-family: Helvetica; font-size: 18px; fill: rgb(51, 51, 51); fill-opacity: 1; white-space: pre; opacity: 1;" transform="translate(335.2,0)">35</text></g><g class="xtick"><text text-anchor="middle" x="0" y="468.6" style="font-family: Helvetica; font-size: 18px; fill: rgb(51, 51, 51); fill-opacity: 1; white-space: pre; opacity: 1;" transform="translate(364.8,0)">40</text></g><g class="xtick"><text text-anchor="middle" x="0" y="468.6" style="font-family: Helvetica; font-size: 18px; fill: rgb(51, 51, 51); fill-opacity: 1; white-space: pre; opacity: 1;" transform="translate(394.4,0)">45</text></g><g class="xtick"><text text-anchor="middle" x="0" y="468.6" style="font-family: Helvetica; font-size: 18px; fill: rgb(51, 51, 51); fill-opacity: 1; white-space: pre; opacity: 1;" transform="translate(424,0)">50</text></g><g class="xtick"><text text-anchor="middle" x="0" y="468.6" style="font-family: Helvetica; font-size: 18px; fill: rgb(51, 51, 51); fill-opacity: 1; white-space: pre; opacity: 1;" transform="translate(453.6,0)">55</text></g><g class="xtick"><text text-anchor="middle" x="0" y="468.6" style="font-family: Helvetica; font-size: 18px; fill: rgb(51, 51, 51); fill-opacity: 1; white-space: pre; opacity: 1;" transform="translate(483.2,0)">60</text></g><g class="xtick"><text text-anchor="middle" x="0" y="468.6" style="font-family: Helvetica; font-size: 18px; fill: rgb(51, 51, 51); fill-opacity: 1; white-space: pre; opacity: 1;" transform="translate(512.8,0)">65</text></g><g class="xtick"><text text-anchor="middle" x="0" y="468.6" style="font-family: Helvetica; font-size: 18px; fill: rgb(51, 51, 51); fill-opacity: 1; white-space: pre; opacity: 1;" transform="translate(542.4,0)">70</text></g><g class="xtick"><text text-anchor="middle" x="0" y="468.6" style="font-family: Helvetica; font-size: 18px; fill: rgb(51, 51, 51); fill-opacity: 1; white-space: pre; opacity: 1;" transform="translate(572,0)">75</text></g><g class="xtick"><text text-anchor="middle" x="0" y="468.6" style="font-family: Helvetica; font-size: 18px; fill: rgb(51, 51, 51); fill-opacity: 1; white-space: pre; opacity: 1;" transform="translate(601.6,0)">80</text></g><g class="xtick"><text text-anchor="middle" x="0" y="468.6" style="font-family: Helvetica; font-size: 18px; fill: rgb(51, 51, 51); fill-opacity: 1; white-space: pre; opacity: 1;" transform="translate(631.2,0)">85</text></g><g class="xtick"><text text-anchor="middle" x="0" y="468.6" style="font-family: Helvetica; font-size: 18px; fill: rgb(51, 51, 51); fill-opacity: 1; white-space: pre; opacity: 1;" transform="translate(660.8,0)">90</text></g><g class="xtick"><text text-anchor="middle" x="0" y="468.6" style="font-family: Helvetica; font-size: 18px; fill: rgb(51, 51, 51); fill-opacity: 1; white-space: pre; opacity: 1;" transform="translate(690.4,0)">95</text></g><g class="xtick"><text text-anchor="middle" x="0" y="468.6" style="font-family: Helvetica; font-size: 18px; fill: rgb(51, 51, 51); fill-opacity: 1; white-space: pre; opacity: 1;" transform="translate(720,0)">100</text></g></g><g class="yaxislayer-above"><path class="ytick ticks crisp" d="M126,0h-5" transform="translate(0,422.22)" style="stroke: rgb(68, 68, 68); stroke-opacity: 1; stroke-width: 1px;"/><path class="ytick ticks crisp" d="M126,0h-5" transform="translate(0,386.67)" style="stroke: rgb(68, 68, 68); stroke-opacity: 1; stroke-width: 1px;"/><path class="ytick ticks crisp" d="M126,0h-5" transform="translate(0,351.11)" style="stroke: rgb(68, 68, 68); stroke-opacity: 1; stroke-width: 1px;"/><path class="ytick ticks crisp" d="M126,0h-5" transform="translate(0,315.56)" style="stroke: rgb(68, 68, 68); stroke-opacity: 1; stroke-width: 1px;"/><path class="ytick ticks crisp" d="M126,0h-5" transform="translate(0,280)" style="stroke: rgb(68, 68, 68); stroke-opacity: 1; stroke-width: 1px;"/><path class="ytick ticks crisp" d="M126,0h-5" transform="translate(0,244.44)" style="stroke: rgb(68, 68, 68); stroke-opacity: 1; stroke-width: 1px;"/><path class="ytick ticks crisp" d="M126,0h-5" transform="translate(0,208.89)" style="stroke: rgb(68, 68, 68); stroke-opacity: 1; stroke-width: 1px;"/><path class="ytick ticks crisp" d="M126,0h-5" transform="translate(0,173.32999999999998)" style="stroke: rgb(68, 68, 68); stroke-opacity: 1; stroke-width: 1px;"/><path class="ytick ticks crisp" d="M126,0h-5" transform="translate(0,137.78)" style="stroke: rgb(68, 68, 68); stroke-opacity: 1; stroke-width: 1px;"/><g class="ytick"><text text-anchor="end" x="117.4" y="6.3" transform="translate(0,422.22)" style="font-family: Helvetica; font-size: 18px; fill: rgb(51, 51, 51); fill-opacity: 1; white-space: pre; opacity: 1;">Общий балл</text></g><g class="ytick"><text text-anchor="end" x="117.4" y="6.3" transform="translate(0,386.67)" style="font-family: Helvetica; font-size: 18px; fill: rgb(51, 51, 51); fill-opacity: 1; white-space: pre; opacity: 1;">Задача №8</text></g><g class="ytick"><text text-anchor="end" x="117.4" y="6.3" transform="translate(0,351.11)" style="font-family: Helvetica; font-size: 18px; fill: rgb(51, 51, 51); fill-opacity: 1; white-space: pre; opacity: 1;">Задача №7</text></g><g class="ytick"><text text-anchor="end" x="117.4" y="6.3" transform="translate(0,315.56)" style="font-family: Helvetica; font-size: 18px; fill: rgb(51, 51, 51); fill-opacity: 1; white-space: pre; opacity: 1;">Задача №6</text></g><g class="ytick"><text text-anchor="end" x="117.4" y="6.3" transform="translate(0,280)" style="font-family: Helvetica; font-size: 18px; fill: rgb(51, 51, 51); fill-opacity: 1; white-space: pre; opacity: 1;">Задача №5</text></g><g class="ytick"><text text-anchor="end" x="117.4" y="6.3" transform="translate(0,244.44)" style="font-family: Helvetica; font-size: 18px; fill: rgb(51, 51, 51); fill-opacity: 1; white-space: pre; opacity: 1;">Задача №4</text></g><g class="ytick"><text text-anchor="end" x="117.4" y="6.3" transform="translate(0,208.89)" style="font-family: Helvetica; font-size: 18px; fill: rgb(51, 51, 51); fill-opacity: 1; white-space: pre; opacity: 1;">Задача №3</text></g><g class="ytick"><text text-anchor="end" x="117.4" y="6.3" transform="translate(0,173.32999999999998)" style="font-family: Helvetica; font-size: 18px; fill: rgb(51, 51, 51); fill-opacity: 1; white-space: pre; opacity: 1;">Задача №2</text></g><g class="ytick"><text text-anchor="end" x="117.4" y="6.3" transform="translate(0,137.78)" style="font-family: Helvetica; font-size: 18px; fill: rgb(51, 51, 51); fill-opacity: 1; white-space: pre; opacity: 1;">Задача №1</text></g></g><g class="overaxes-above"/></g></g><g class="polarlayer"/><g class="smithlayer"/><g class="ternarylayer"/><g class="geolayer"/><g class="funnelarealayer"/><g class="pielayer"/><g class="iciclelayer"/><g class="treemaplayer"/><g class="sunburstlayer"/><g class="glimages"/><defs id="topdefs-f2876c"><g class="clips"/></defs><g class="layer-above"><g class="imagelayer"/><g class="shapelayer"/></g><g class="infolayer"><g class="g-gtitle"><text class="gtitle" x="400" y="50" text-anchor="middle" dy="0.7em" style="font-family: Helvetica; font-size: 22px; fill: rgb(51, 51, 51); opacity: 1; font-weight: normal; white-space: pre;"><tspan class="line" dy="0em" x="400" y="50">Распределение баллов (в %) по задачам</tspan><tspan class="line" dy="1.3em" x="400" y="50">(11 кл., заключительный этап, 2022-2023 уч. год)</tspan></text></g><g class="g-xtitle"/><g class="g-ytitle"/></g></svg>